<?xml version="1.0" encoding="UTF-8"?>
<svg version="1.1" xmlns="http://www.w3.org/2000/svg" width="1254" height="1254">
<path d="M0 0 C413.82 0 827.64 0 1254 0 C1254 413.82 1254 827.64 1254 1254 C840.18 1254 426.36 1254 0 1254 C0 840.18 0 426.36 0 0 Z " fill="#FDFDFD" transform="translate(0,0)"/>
<path d="M0 0 C0.68096495 -0.00235223 1.3619299 -0.00470446 2.06353015 -0.00712797 C4.34397867 -0.01378176 6.62436973 -0.01336085 8.90482712 -0.01294994 C10.55692435 -0.0162508 12.20902077 -0.01997684 13.86111617 -0.02409142 C18.40028626 -0.03409385 22.93944313 -0.03782537 27.47862267 -0.04048073 C32.37446544 -0.04438886 37.27029778 -0.05396667 42.16613388 -0.0626936 C53.98728777 -0.08244095 65.80844249 -0.09252084 77.62960875 -0.10142139 C83.19705424 -0.10580607 88.76449878 -0.11117231 94.33194351 -0.11641026 C112.83911695 -0.13341883 131.3462898 -0.14791388 149.85346985 -0.155159 C154.65434139 -0.15706886 159.45521292 -0.1589892 164.25608444 -0.16094494 C165.44930485 -0.16142868 166.64252526 -0.16191242 167.87190387 -0.16241082 C187.20941025 -0.17071452 206.54685484 -0.19605884 225.88433424 -0.22852562 C245.7388916 -0.26158884 265.59341754 -0.27960699 285.44800258 -0.28280324 C296.59524288 -0.28496873 307.742393 -0.29372351 318.88960648 -0.31926441 C328.3808451 -0.34096108 337.87197162 -0.34902679 347.36323223 -0.33929763 C352.20498752 -0.33475032 357.04651147 -0.33666446 361.88823509 -0.35605907 C366.32349798 -0.37367206 370.75836042 -0.37270818 375.19362745 -0.35716178 C376.79523536 -0.35478292 378.39687088 -0.35912373 379.9984366 -0.37099043 C389.97374638 -0.44030412 398.37932948 0.05796899 406.6904211 6.05648136 C407.69167758 7.06408575 407.69167758 7.06408575 408.71316147 8.09204578 C409.49930832 8.86849949 410.28545517 9.64495319 411.09542465 10.4449358 C412.32942757 11.70893963 412.32942757 11.70893963 413.58835983 12.99847889 C414.93430725 14.34070263 414.93430725 14.34070263 416.30744553 15.710042 C418.74862318 18.14527054 421.1709056 20.59851539 423.58990455 23.05574989 C426.13713997 25.63703191 428.70123006 28.20146896 431.26336288 30.7679491 C435.56246642 35.07897872 439.85051809 39.40073791 444.1308403 43.73041248 C450.14669289 49.81558754 456.18241553 55.88074801 462.22219217 61.9421649 C466.93581922 66.67415474 471.64397237 71.4115901 476.35129929 76.14984608 C476.85155742 76.65327565 477.35181556 77.15670523 477.86723304 77.67539024 C481.20028003 81.03031862 484.52826689 84.3901912 487.85398483 87.75238514 C489.09709679 89.00424358 489.09709679 89.00424358 490.36532211 90.2813921 C493.84484327 93.80585929 497.25581703 97.34400272 500.48295212 101.10199451 C504.70573423 105.99778832 509.30369242 110.49569926 513.90623093 115.03168201 C514.88300667 115.99832902 515.85950527 116.96525615 516.83575058 117.93243885 C518.92375527 120.00047572 521.01311346 122.06713186 523.10339165 124.13287067 C526.41648503 127.40826393 529.7228333 130.69040997 533.02767563 133.97412586 C533.58797897 134.53079181 534.14828231 135.08745777 534.72556454 135.66099238 C535.87047569 136.79849908 537.01537091 137.93602181 538.16025054 139.07356024 C545.84259014 146.7061263 553.52915511 154.334298 561.23435593 161.94379139 C566.44885534 167.09362217 571.65243763 172.25421649 576.8439464 177.42722631 C579.58375575 180.1564191 582.32865352 182.87998923 585.08706474 185.59039021 C587.68333243 188.14162449 590.26485528 190.70693094 592.83634377 193.2831316 C594.21820064 194.66026028 595.61489427 196.02245265 597.01218796 197.3839159 C606.29488049 206.74182581 611.19585689 216.27798182 611.14733505 229.43579578 C611.14818948 230.28042527 611.1490439 231.12505476 611.14992422 231.99527907 C611.15157329 234.82970049 611.14606697 237.66406291 611.14060593 240.49847889 C611.14032391 242.52859972 611.14048208 244.55872066 611.14104843 246.58884144 C611.14133582 252.10496648 611.13544845 257.62106986 611.12847447 263.13718987 C611.1222313 268.90009483 611.12163637 274.66300027 611.12044907 280.42590809 C611.1173386 291.3409808 611.10912904 302.25604352 611.09909958 313.17111182 C611.08792961 325.59660166 611.08242576 338.02209197 611.07740414 350.44758558 C611.0669462 376.00980296 611.04935225 401.57201146 611.02708054 427.13422108 C607.48410623 426.36605001 605.8217031 425.32422901 603.19895554 422.78265858 C602.12194382 421.75205311 602.12194382 421.75205311 601.02317429 420.70062733 C600.28196335 419.97746326 599.54075241 419.2542992 598.77708054 418.50922108 C597.31488566 417.09896918 595.85134994 415.69010614 594.38645554 414.28265858 C593.6536235 413.57850819 592.92079147 412.8743578 592.16575241 412.14886951 C590.24356448 410.33815093 588.28948255 408.58832045 586.29270554 406.86078358 C585.68822083 406.29752369 585.08373611 405.7342638 584.46093369 405.15393543 C582.01521755 403.0000751 582.01521755 403.0000751 578.81661606 401.33759022 C574.49529599 398.65162654 571.33193626 395.72591793 569.02708054 391.13422108 C566.68062376 380.95889401 567.38509726 370.07744526 567.57289338 359.69399309 C567.63388145 355.52831036 567.61898772 351.36289763 567.61196518 347.19687366 C567.60969291 339.3223199 567.67159332 331.4497094 567.75853413 323.57568705 C567.88334837 311.99651444 567.90826756 300.41702052 567.93632412 288.83727932 C567.94062465 287.12967002 567.94497205 285.42206084 567.94936752 283.71445179 C567.95141636 282.88115081 567.9534652 282.04784984 567.95557612 281.18929732 C567.96990216 276.23208668 568.00197838 271.27537847 568.05004942 266.31838202 C568.07908629 263.24599678 568.10095207 260.17358228 568.12188339 257.10113239 C568.13361076 255.67320227 568.14888872 254.2452964 568.16790962 252.8174448 C568.19357754 250.87458102 568.20620124 248.93155773 568.2180748 246.98856068 C568.22942868 245.8998385 568.24078257 244.81111633 568.25248051 243.68940258 C568.28795782 240.96694043 568.28795782 240.96694043 566.02708054 239.13422108 C563.11489324 238.82965297 563.11489324 238.82965297 559.63451767 238.88266468 C558.97086746 238.87969454 558.30721724 238.8767244 557.62345642 238.87366426 C555.38885198 238.86599642 553.15450825 238.87252973 550.9199028 238.87884998 C549.32171067 238.8761012 547.72351991 238.87242199 546.12533188 238.86787891 C542.67677149 238.85975175 539.228276 238.85760235 535.77970695 238.85982609 C530.31986942 238.86265578 524.86016169 238.84831758 519.40035629 238.83084583 C503.87206116 238.78379379 488.34377382 238.75989592 472.81541061 238.7533617 C464.24424357 238.74960271 455.67322247 238.73150074 447.10211796 238.69826734 C441.68255957 238.67811237 436.26337915 238.67565495 430.84379876 238.68654752 C427.45727983 238.68916807 424.07097747 238.67508421 420.684515 238.65646648 C419.12334867 238.65117563 417.56214167 238.65258764 416.00099182 238.66150188 C401.67944161 238.7366264 391.41760487 236.01669532 380.89817429 226.13422108 C371.60297769 216.54801464 370.42971418 206.14661919 370.4811821 193.20770741 C370.47242895 191.73811223 370.46193715 190.26852655 370.4498558 188.79895496 C370.42218796 184.84304389 370.41858682 180.88744672 370.41957569 176.93145299 C370.41642991 172.78475411 370.39077734 168.6381932 370.36759567 164.49156666 C370.32715893 156.65438117 370.30672408 148.81727863 370.29362178 140.98000497 C370.27770979 132.05118789 370.23927665 123.12251114 370.19902849 114.19377577 C370.1167984 95.84063534 370.06260099 77.4875084 370.02708054 59.13422108 C366.61110397 57.06336517 363.96649565 56.88373638 360.00468922 56.8825388 C358.76320309 56.8773233 357.52171696 56.87210781 356.24261004 56.86673427 C354.86258452 56.87105851 353.48255959 56.87557183 352.10253525 56.88025379 C350.63834078 56.87795007 349.17414747 56.87477414 347.70995659 56.8707993 C343.68105702 56.86243039 339.65225189 56.86658607 335.62335193 56.87277174 C331.28040282 56.87728671 326.93747024 56.8703172 322.59452438 56.8648119 C314.08427389 56.8559058 305.57405861 56.85784538 297.06380672 56.86363718 C290.14841878 56.86814918 283.23304073 56.86876857 276.31765175 56.86658955 C275.33438408 56.86628308 274.35111642 56.86597661 273.33805276 56.86566086 C271.34071255 56.86502143 269.34337234 56.864373 267.34603214 56.86371568 C248.60443721 56.85800875 229.86286183 56.86457582 211.12127011 56.87531641 C195.03314179 56.88425086 178.94504232 56.88270146 162.85691452 56.87347889 C144.18511843 56.86278027 125.51333948 56.85855957 106.84154075 56.86470342 C104.85113553 56.86534053 102.86073031 56.86596927 100.87032509 56.86658955 C99.89094946 56.8668981 98.91157382 56.86720665 97.90252014 56.86752455 C90.99435004 56.86925282 84.0861908 56.86633351 77.17802238 56.86163044 C68.76075397 56.85602608 60.34352288 56.85752861 51.92625875 56.86819193 C47.63000033 56.87345486 43.33380415 56.87549484 39.03754616 56.86889362 C35.1064854 56.86294482 31.17554473 56.86619157 27.24449491 56.87684873 C25.82057921 56.87908732 24.39665341 56.87793621 22.97274417 56.87309715 C21.04027407 56.86703235 19.10777564 56.87443752 17.175313 56.8825388 C15.56380473 56.88302585 15.56380473 56.88302585 13.91974074 56.88352275 C10.90234389 57.14503163 8.76968571 57.88776736 6.02708054 59.13422108 C5.03708054 59.46422108 4.04708054 59.79422108 3.02708054 60.13422108 C0.4613392 64.26791546 -0.09765042 68.31272809 -0.10172063 73.10611951 C-0.10499283 74.11552996 -0.10826502 75.1249404 -0.11163637 76.16493905 C-0.11015275 77.27415337 -0.10866912 78.38336769 -0.10714054 79.52619457 C-0.10949277 80.70918558 -0.111845 81.89217658 -0.11426851 83.1110158 C-0.11979871 86.4102224 -0.12082951 89.70937591 -0.1199911 93.00858347 C-0.12016044 96.59200739 -0.12606478 100.17542255 -0.13123196 103.75884211 C-0.14056585 110.87301147 -0.14448133 117.98717461 -0.14675093 125.10134933 C-0.14971088 133.61967317 -0.15840696 142.13798874 -0.16716521 150.65630825 C-0.18801724 171.24495147 -0.1984799 191.83359613 -0.20729482 212.42224745 C-0.21149953 222.15784481 -0.2167217 231.89344155 -0.22197935 241.62903839 C-0.2398686 274.94159814 -0.2548663 308.25415807 -0.26229954 341.56672192 C-0.2627743 343.65834859 -0.26325019 345.74997527 -0.2637272 347.84160195 C-0.26396358 348.87887804 -0.26419995 349.91615414 -0.26444349 350.98486285 C-0.26564471 356.24037809 -0.26686015 361.49589334 -0.26808548 366.75140858 C-0.26832563 367.79438752 -0.26856578 368.83736646 -0.26881321 369.91195083 C-0.27671035 403.74606152 -0.30015123 437.5801372 -0.33264142 471.41423259 C-0.3669134 507.16893492 -0.38664814 542.92361676 -0.38994378 578.67833579 C-0.39036133 582.60072018 -0.3908409 586.52310455 -0.39136696 590.44548893 C-0.39149015 591.41132058 -0.39161334 592.37715222 -0.39174027 593.37225149 C-0.39407536 608.93627166 -0.40975234 624.50025125 -0.43020881 640.06425694 C-0.4504309 655.6975006 -0.45596125 671.33069535 -0.44643817 686.96394967 C-0.44120939 696.25871874 -0.44716544 705.55332538 -0.46897284 714.84807118 C-0.48243057 721.05121546 -0.48144871 727.25424732 -0.46857089 733.4573926 C-0.46164061 736.99544617 -0.46111837 740.53318811 -0.47813097 744.07121448 C-0.4962865 747.87781267 -0.48368068 751.68394813 -0.46790409 755.4905653 C-0.4781263 756.59509729 -0.4883485 757.69962928 -0.49888048 758.83763194 C-0.44344227 764.92038647 -0.05983224 768.51549755 4.02708054 773.13422108 C7.99523673 776.32534354 11.11192285 776.49750806 16.12589645 776.45892811 C17.18156228 776.45725651 17.18156228 776.45725651 18.2585547 776.45555115 C20.61235998 776.44845787 22.96543114 776.42008751 25.31907272 776.39203358 C27.01008027 776.38303764 28.70109625 776.37552225 30.39211655 776.36937428 C34.03708793 776.353986 37.68187364 776.33013802 41.32675552 776.30038929 C47.12468213 776.25520412 52.92241784 776.24161392 58.72050095 776.23456287 C75.21052544 776.21111112 91.70010733 776.17174305 108.18967819 776.04193592 C117.29550568 775.97051251 126.4005699 775.93985192 135.50667882 775.95222569 C140.3089593 775.95707903 145.10925381 775.9428076 149.91113663 775.87769032 C173.7918808 775.56676408 193.39537085 778.04753396 215.64274979 786.87874317 C224.15282616 790.03570792 233.09038388 791.68414491 242.02708054 793.13422108 C243.00000046 793.29358143 243.97292038 793.45294178 244.97532272 793.61713123 C283.27092318 799.5820058 322.91351339 799.20993251 356.02708054 777.13422108 C358.45806803 776.94016354 360.77443755 776.86191056 363.20547104 776.87593555 C363.94151276 776.87225985 364.67755449 776.86858415 365.43590051 776.86479706 C367.90931625 776.85479434 370.38250817 776.85897239 372.85593796 776.86298084 C374.62663131 776.85859497 376.39732261 776.85329332 378.16801071 776.84714222 C381.98542353 776.8356282 385.80278074 776.83018176 389.62021065 776.82926083 C395.65898703 776.82732226 401.69764832 776.80927962 407.73638535 776.78850269 C422.74019336 776.73927909 437.74403278 776.70844895 452.74790573 776.68719959 C464.39913139 776.67067061 476.0502588 776.64782896 487.7014187 776.60417885 C493.70129147 776.58241656 499.70097757 776.57434343 505.70088708 776.57657158 C509.44012566 776.57490181 513.17924301 776.56083409 516.91843796 776.5433588 C518.64857029 776.53777115 520.37872789 776.53726313 522.10886192 776.54229641 C524.47744084 776.54846285 526.84525891 776.53616155 529.21377182 776.51949024 C529.89268437 776.52570206 530.57159692 776.53191387 531.27108258 776.53831393 C536.23643017 776.47496847 540.770787 775.75230414 545.02708054 773.13422108 C548.99114803 768.85443686 549.60977352 764.02335241 549.54606247 758.34505177 C549.55356372 757.59178071 549.56106497 756.83850965 549.56879354 756.0624122 C549.5889873 753.55489482 549.58098478 751.04828887 549.57297897 748.54071522 C549.58171854 746.73674092 549.59220566 744.93277436 549.60430527 743.12881947 C549.63213893 738.24296434 549.63557053 733.35736249 549.63458538 728.4714396 C549.63771673 723.36112737 549.6633396 718.25092883 549.6865654 713.14067554 C549.72711183 703.46880949 549.74746295 693.79701084 549.76053929 684.1250729 C549.7764139 673.11175857 549.81483152 662.09855887 549.85513258 651.08531106 C549.93751299 628.43498621 549.99161674 605.78466454 550.02708054 583.13422108 C548.270079 584.56887763 546.51348442 586.00403258 544.757061 587.43939686 C543.77881363 588.23854511 542.80056625 589.03769337 541.79267502 589.86105824 C538.54062792 592.53405772 535.33561038 595.25537011 532.15208054 598.00922108 C530.9570718 599.03821978 529.76175215 600.06685752 528.56614304 601.09515858 C527.97607468 601.60272694 527.38600632 602.1102953 526.7780571 602.63324451 C524.03947126 604.980822 521.28374751 607.3079287 518.52708054 609.63422108 C512.25358989 614.93185657 506.01822411 620.27317285 499.78879929 625.62250233 C498.04658314 627.11748603 496.30275389 628.61056373 494.55833054 630.10297108 C479.03115193 643.33805408 479.03115193 643.33805408 463.77708054 656.88422108 C460.46268768 659.89182716 457.07048971 662.75851804 453.58958054 665.57172108 C448.75402137 669.48524566 444.14721006 673.59925706 439.56614304 677.80609608 C433.39841955 683.46142408 427.01280715 688.86819235 420.65501022 694.30731678 C416.24184061 698.08511599 411.84981302 701.88655461 407.46458054 705.69672108 C398.31192505 713.63966512 389.12136067 721.51407707 379.62083054 729.04047108 C375.97226641 731.98569754 372.41078724 735.02986494 368.84128952 738.07001209 C364.84988003 741.46098037 360.78532047 744.7418896 356.66379929 747.97406483 C354.66607142 749.61072188 352.7599395 751.27008704 350.85911179 753.01312733 C340.54591861 762.38579988 328.78771287 769.89499258 315.02708054 773.13422108 C314.18532272 773.33660389 313.34356491 773.5389867 312.47629929 773.74750233 C256.08549867 784.72690324 190.47375495 762.0017722 144.02708054 731.13422108 C134.99755672 724.94542228 126.35768565 718.23402139 118.02708054 711.13422108 C116.9229985 710.1983617 116.9229985 710.1983617 115.79661179 709.24359608 C100.94255298 696.25588201 87.46610278 682.21516539 76.02708054 666.13422108 C75.22587404 665.0398286 74.42384502 663.94603762 73.62083054 662.85297108 C49.69227996 629.48780901 33.14935709 588.93143432 28.02708054 548.13422108 C27.87481003 546.99436756 27.87481003 546.99436756 27.71946335 545.8314867 C24.68656527 522.62072724 24.98995449 498.80032821 29.15208054 475.75922108 C29.3687236 474.55749256 29.58536667 473.35576405 29.80857468 472.11761951 C33.09821679 454.65712298 38.1899576 437.53938674 45.02708054 421.13422108 C45.33838913 420.38285877 45.64969772 419.63149647 45.97043991 418.85736561 C55.64199905 395.80556919 68.44398376 374.65304112 84.02708054 355.13422108 C84.8121196 354.14164295 85.59715866 353.14906483 86.40598679 352.12640858 C98.04727244 337.87995258 111.29675877 324.19251421 126.02708054 313.13422108 C127.18692939 312.22402884 128.34570283 311.31246525 129.50364304 310.39984608 C152.27774012 292.64777424 178.4347985 277.89367569 206.02708054 269.13422108 C206.90896042 268.85384998 207.7908403 268.57347889 208.69944382 268.2846117 C219.17686716 265.00374938 229.700991 262.00987643 240.46458054 259.82172108 C241.18291061 259.67460682 241.90124069 259.52749256 242.64133835 259.3759203 C245.09727402 258.90866952 247.55562245 258.51151983 250.02708054 258.13422108 C251.17861618 257.95616932 252.33015182 257.77811756 253.51658249 257.5946703 C265.33057088 255.91778361 277.09699978 255.82769339 289.01267624 255.87347889 C292.35164431 255.88426003 295.69008118 255.87349129 299.02903366 255.86078358 C301.1911442 255.86210446 303.35325442 255.86466537 305.51536179 255.86859608 C306.98299721 255.86252338 306.98299721 255.86252338 308.48028183 255.85632801 C315.49897323 255.90313848 322.13479428 256.86145895 329.02708054 258.13422108 C331.27579426 258.43564441 333.52559973 258.72921458 335.77708054 259.00922108 C343.68707348 260.13304521 351.3313355 262.03896698 359.02708054 264.13422108 C359.87318893 264.36157948 360.71929733 264.58893787 361.59104538 264.82318592 C372.05386446 267.65051422 382.11935799 270.69177537 392.02708054 275.13422108 C393.60813852 275.74431734 395.19148024 276.3485292 396.77708054 276.94672108 C423.88795216 287.83410286 448.20093857 304.93348578 470.02708054 324.13422108 C468.47881368 327.80316077 466.2528249 330.18518313 463.47312546 333.01044178 C463.01269348 333.48080357 462.55226151 333.95116535 462.07787704 334.43578053 C460.55998857 335.98277236 459.03450938 337.52196692 457.50754929 339.06000233 C456.44621068 340.13284955 455.38487549 341.20570015 454.32354355 342.27855396 C452.10058245 344.52249106 449.87302713 346.76176235 447.64304733 348.99872303 C444.78446206 351.86830952 441.9449171 354.75599308 439.10938168 357.6483326 C436.92582765 359.86908677 434.72901852 362.07635651 432.52832603 364.28011608 C431.47516047 365.33934111 430.42700684 366.40357373 429.38400459 367.47280788 C427.92616201 368.96468848 426.45064202 370.4365571 424.96921921 371.90497303 C423.71585014 373.16927898 423.71585014 373.16927898 422.43716049 374.45912647 C420.02708054 376.13422108 420.02708054 376.13422108 417.40764999 376.02867603 C413.98321652 374.74200847 411.36310214 372.56955651 408.52708054 370.32172108 C388.43351364 355.0407875 365.95118875 345.56574033 342.02708054 338.13422108 C341.33727097 337.91604725 340.6474614 337.69787342 339.9367485 337.47308826 C323.22677058 332.26267922 305.72772536 331.69210611 288.33958054 331.69672108 C287.03871002 331.69511982 287.03871002 331.69511982 285.7115593 331.69348621 C271.30415609 331.71894303 257.90507056 333.04246953 244.02708054 337.13422108 C243.16373093 337.38010975 242.30038132 337.62599842 241.4108696 337.87933826 C235.88962225 339.46900865 230.45126228 341.24227913 225.02708054 343.13422108 C223.90688522 343.51062733 222.78668991 343.88703358 221.63254929 344.27484608 C199.77690815 352.08239587 179.30373389 365.34465601 162.32786179 381.02093983 C160.2492282 382.93017713 158.12287308 384.75398751 155.96458054 386.57172108 C122.70103184 415.77711683 104.0585128 462.85551403 101.02708054 506.13422108 C99.47988351 536.60183361 105.3793837 566.89868573 119.02708054 594.13422108 C119.60237201 595.33881895 120.17529279 596.54455191 120.74583054 597.75140858 C126.24782617 609.18055406 133.12017847 619.254996 141.02708054 629.13422108 C141.5955571 629.88832264 142.16403366 630.6424242 142.74973679 631.41937733 C160.89019473 655.10596254 188.61613769 676.6639068 217.05051804 686.14203358 C219.66868173 687.01475481 222.16942888 688.00350127 224.71848679 689.05609608 C229.92259607 691.15343349 235.17876233 692.78614669 240.58958054 694.25922108 C242.00835495 694.64823597 242.00835495 694.64823597 243.45579147 695.04510975 C250.89663838 697.00543378 258.23036131 698.14905826 265.88645554 698.81000233 C269.02708054 699.13422108 269.02708054 699.13422108 271.02708054 700.13422108 C275.03944044 700.39281837 279.05368344 700.40536204 283.0737114 700.42938709 C285.05775343 700.4464474 287.04150662 700.49031248 289.02512741 700.5346117 C296.7664656 700.58567076 302.33287517 700.02110933 309.02708054 696.13422108 C310.46071945 695.36307972 310.46071945 695.36307972 311.92332077 694.57635975 C324.35572347 687.81910008 336.55316182 680.84164157 347.31516647 671.59564686 C349.2733144 669.9240163 351.26082064 668.29169177 353.25364304 666.66156483 C356.19722658 664.25367793 359.13380367 661.83785691 362.06223679 659.41156483 C365.24273282 656.77805701 368.4430464 654.17041885 371.65208054 651.57172108 C377.26316484 646.98777929 382.72065989 642.23267948 388.18333054 637.47406483 C391.88195853 634.25367542 395.60867606 631.06709464 399.33958054 627.88422108 C403.35067309 624.45995503 407.3136376 620.99694833 411.21458054 617.44672108 C414.52791133 614.43607629 417.91649983 611.56856929 421.40208054 608.75922108 C426.54962602 604.59458739 431.41060441 600.18116967 436.26536179 595.68500233 C440.81459318 591.48323698 445.49075137 587.43979595 450.20676804 583.42718983 C457.04827761 577.59973048 463.76960161 571.67765376 470.37083054 565.57953358 C474.87794782 561.43033443 479.50227785 557.42721304 484.17161179 553.46234608 C491.31122018 547.39047373 498.28608989 541.18569538 505.14817429 534.80218983 C509.74261315 530.54438556 514.47199644 526.45929638 519.23801804 522.39593983 C520.43870095 521.37139015 521.63921675 520.34664462 522.83958054 519.32172108 C523.44576218 518.80440418 524.05194382 518.28708729 524.6764946 517.75409412 C528.41778874 514.54919878 532.08823437 511.2821283 535.71458054 507.94672108 C539.18844363 504.75685263 542.72618078 501.71373213 546.40208054 498.75922108 C550.60522208 495.37036336 554.5891321 491.82184671 558.52708054 488.13422108 C563.3102681 483.65508546 568.23522741 479.44970895 573.34739304 475.34515858 C576.15961368 473.02487157 578.84505316 470.60350974 581.52708054 468.13422108 C585.98569751 464.03077132 590.58956809 460.17861774 595.31223679 456.38422108 C598.99318129 453.33353901 602.46746372 450.07801302 605.93333054 446.78656483 C608.02708054 445.13422108 608.02708054 445.13422108 611.02708054 445.13422108 C611.07285917 488.29501017 611.10810035 531.45579645 611.12921119 574.61660501 C611.13171261 579.71223944 611.13430125 584.80787383 611.13694382 589.90350819 C611.13773075 591.42518053 611.13773075 591.42518053 611.13853358 592.97759373 C611.14723597 609.4029648 611.16300504 625.82832187 611.18138613 642.25368463 C611.20008977 659.10786217 611.21119825 675.96203238 611.21525753 692.81621987 C611.21800161 703.21597142 611.22666841 713.6156834 611.24291347 724.01542277 C611.25348607 731.14709881 611.25668053 738.27875439 611.25408329 745.4104377 C611.25280244 749.52489619 611.25476482 753.63928553 611.26549149 757.75373173 C611.27524777 761.52355084 611.27570004 765.2932545 611.26887833 769.06307901 C611.26763763 771.06660314 611.27624206 773.07012598 611.28524315 775.07363027 C611.25209985 785.08024977 609.97093499 793.21785219 605.40208054 802.13422108 C605.04654099 802.8284618 604.69100143 803.52270252 604.32468796 804.23798084 C596.87068432 818.30533576 584.78175006 826.87714797 569.99973679 832.25922108 C563.7732803 834.09197568 557.84800867 834.27983727 551.41317463 834.27123547 C550.44668414 834.27388729 549.48019364 834.27653912 548.48441556 834.2792713 C545.23264131 834.2869556 541.98090488 834.28752315 538.72912216 834.28812122 C536.37937247 834.29213641 534.02962348 834.29657473 531.67987531 834.30140078 C525.8906877 834.31211038 520.10150842 834.31812081 514.31231258 834.32210966 C507.37778692 834.32712469 500.44327297 834.33785312 493.50875423 834.34859139 C476.74752359 834.37420501 459.9862884 834.38925407 443.22504381 834.40210186 C437.67252193 834.40635803 432.12000037 834.41092379 426.5674789 834.41568518 C397.03299202 834.44094654 367.49850458 834.46299067 337.96400928 834.47541332 C331.12297247 834.47833456 324.28193567 834.4813021 317.4408989 834.48431873 C316.59100242 834.48468964 315.74110595 834.48506055 314.86545503 834.4854427 C287.31583553 834.49759557 259.76627994 834.52853631 232.21669045 834.57024026 C203.88544012 834.61304913 175.55422355 834.63965699 147.22294001 834.64488804 C143.21947129 834.64562845 139.21600262 834.64653913 135.21253395 834.64754581 C134.42464537 834.64773643 133.6367568 834.64792704 132.82499281 834.64812343 C120.15834218 834.65163351 107.49177176 834.67191509 94.82515056 834.69834245 C82.08660098 834.72451859 69.34814385 834.73220119 56.60957123 834.72124116 C49.71154849 834.7157995 42.81375789 834.71827775 35.91577339 834.7437067 C29.59589043 834.76620654 23.27644477 834.76545281 16.95655411 834.74650283 C14.6751836 834.74370395 12.39378339 834.74929498 10.11246062 834.76431577 C-9.8959486 834.88795802 -26.06709391 832.04101009 -40.97291946 817.44672108 C-47.97291946 810.20223578 -47.97291946 810.20223578 -47.97291946 807.13422108 C-48.63291946 807.13422108 -49.29291946 807.13422108 -49.97291946 807.13422108 C-55.01373525 795.56849146 -57.42850124 784.86541141 -57.34764957 772.24084091 C-57.3517103 770.99271243 -57.35577103 769.74458395 -57.3599548 768.45863339 C-57.37073967 765.01393354 -57.36302287 761.56949305 -57.35212077 758.12480291 C-57.34357154 754.36975198 -57.35251619 750.61473461 -57.35918492 746.85968548 C-57.36846332 740.28497089 -57.36663654 733.71033282 -57.35745239 727.13561916 C-57.34383281 717.35875635 -57.3474245 707.58195213 -57.354411 697.80508503 C-57.36633112 680.3426508 -57.36125726 662.8802527 -57.34913272 645.41782047 C-57.33859501 630.13674638 -57.33405743 614.85568459 -57.33542824 599.5746069 C-57.33551227 598.56083595 -57.3355963 597.54706501 -57.33568288 596.50257374 C-57.33603513 592.38732078 -57.33641914 588.27206783 -57.33684845 584.15681488 C-57.34081309 545.55656448 -57.32809745 506.95633584 -57.30732189 468.35609167 C-57.2889512 434.06280965 -57.28314002 399.7695485 -57.28859329 365.47626209 C-57.28893973 363.27414528 -57.28928582 361.07202847 -57.28963158 358.86991166 C-57.28980258 357.7812261 -57.28997357 356.69254054 -57.29014975 355.5708645 C-57.2910033 350.09054872 -57.29182708 344.61023294 -57.29261875 339.12991714 C-57.29277583 338.04873112 -57.29293291 336.9675451 -57.29309475 335.85359587 C-57.29708472 307.19649838 -57.29160936 278.5394029 -57.28310746 249.88230664 C-57.28220042 246.79881148 -57.28129477 243.71531633 -57.28039223 240.63182118 C-57.27979112 238.58632198 -57.2791825 236.54082279 -57.27856632 234.4953236 C-57.27434495 220.23515741 -57.27376669 205.97499517 -57.27567181 191.71482856 C-57.27811461 173.3385837 -57.27404432 154.96235998 -57.25846181 136.5861209 C-57.25041112 126.86805215 -57.24781038 117.15001859 -57.25310417 107.43194774 C-57.25608111 100.94053584 -57.25177944 94.44915504 -57.24155559 87.95775058 C-57.23592968 84.25936911 -57.2334229 80.56105941 -57.23972217 76.86267739 C-57.24643118 72.87564192 -57.23764979 68.88878798 -57.22739506 64.9017601 C-57.23179154 63.75810221 -57.23618803 62.61444432 -57.24071774 61.43613014 C-57.14989891 42.93264472 -51.26155058 28.91123088 -38.59791946 15.32172108 C-28.23833775 5.52338081 -14.12353559 0.02086915 0 0 Z " fill="#0451E6" transform="translate(359.9729194641113,225.86577892303467)"/>
<path d="M0 0 C20.46 0 40.92 0 62 0 C62 60.39 62 120.78 62 183 C31.08791209 200.05494505 31.08791209 200.05494505 0 196 C0 131.32 0 66.64 0 0 Z " fill="#0451E7" transform="translate(623,707)"/>
<path d="M0 0 C20.13 0 40.26 0 61 0 C61.31648517 21.56689913 61.57417747 43.13190794 61.72537041 64.70054245 C61.79744957 74.71608576 61.8956455 84.73008014 62.05615234 94.74462891 C62.19604596 103.47724162 62.28609558 112.2087324 62.31723893 120.94243455 C62.33543584 125.5642101 62.37793643 130.18277728 62.48022079 134.8035202 C62.57589721 139.1614187 62.60444421 143.5148177 62.58350754 147.87366676 C62.58733169 149.46530781 62.61482346 151.05711296 62.66887665 152.6478405 C63.04502695 164.29769968 63.04502695 164.29769968 59.62525415 168.81659031 C56.30423084 172.27169956 52.59934923 175.12506803 48.66541505 177.84601068 C46.47181875 179.36598415 44.39606001 181.02117044 42.3125 182.6875 C41.61253906 183.22246094 40.91257812 183.75742187 40.19140625 184.30859375 C33.46362009 189.50134136 26.97833526 195.00154883 20.5 200.5 C16.30411684 204.05670072 12.10519982 207.60913471 7.875 211.125 C6.57175781 212.21167969 6.57175781 212.21167969 5.2421875 213.3203125 C3 215 3 215 0 216 C0 144.72 0 73.44 0 0 Z " fill="#0451E6" transform="translate(717,645)"/>
<path d="M0 0 C20.46 0 40.92 0 62 0 C62 41.91 62 83.82 62 127 C51.8623705 124.74719345 51.8623705 124.74719345 48.30859375 122.78515625 C47.51718994 122.35203125 46.72578613 121.91890625 45.91040039 121.47265625 C45.09434326 121.00730469 44.27828613 120.54195312 43.4375 120.0625 C42.5705249 119.57523438 41.7035498 119.08796875 40.81030273 118.5859375 C28.54327591 111.58327998 17.29093021 103.61834309 6.671875 94.3125 C4.21865977 92.00887409 4.21865977 92.00887409 1.86138916 90.88737488 C-0.59371114 88.39800043 -0.47288897 86.37364727 -0.49768066 82.97868347 C-0.48329956 82.15725357 -0.46891846 81.33582367 -0.45410156 80.48950195 C-0.45468567 79.62099609 -0.45526978 78.75249023 -0.45587158 77.85766602 C-0.45308265 74.98413256 -0.42195272 72.1116337 -0.390625 69.23828125 C-0.38316548 67.24717272 -0.37747119 65.25605685 -0.37347412 63.26493835 C-0.35819504 58.02208213 -0.31889351 52.77966854 -0.2746582 47.5369873 C-0.22656412 41.24785256 -0.20818233 34.95856987 -0.18484497 28.66930389 C-0.14604401 19.11256133 -0.06940578 9.55679014 0 0 Z " fill="#0551E6" transform="translate(529,766)"/>
<path d="M0 0 C0.33 0 0.66 0 1 0 C1.33 40.59 1.66 81.18 2 123 C2.99 123.33 3.98 123.66 5 124 C3.625 126 3.625 126 2 128 C1.34 128 0.68 128 0 128 C0 85.76 0 43.52 0 0 Z " fill="#1B58E7" transform="translate(717,733)"/>
<path d="M0 0 C0.66 0.33 1.32 0.66 2 1 C0.02 3.31 -1.96 5.62 -4 8 C-4.66 7.34 -5.32 6.68 -6 6 C-4.02 4.02 -2.04 2.04 0 0 Z M-8 7 C-7.34 7.33 -6.68 7.66 -6 8 C-8.31 10.64 -10.62 13.28 -13 16 C-14.32 15.67 -15.64 15.34 -17 15 C-14.03 12.36 -11.06 9.72 -8 7 Z " fill="#1A5BE8" transform="translate(909,722)"/>
<path d="M0 0 C0 0.33 0 0.66 0 1 C-1.7015625 1.2165625 -1.7015625 1.2165625 -3.4375 1.4375 C-6.80777201 1.61171478 -6.80777201 1.61171478 -8 3 C-9.99609375 3.16796875 -9.99609375 3.16796875 -12.4375 3.1875 C-13.64212891 3.20876953 -13.64212891 3.20876953 -14.87109375 3.23046875 C-17 3 -17 3 -19 1 C-12.65758005 -0.15316726 -6.43311296 -0.09507063 0 0 Z " fill="#3270ED" transform="translate(639,482)"/>
<path d="M0 0 C-3.31016094 1.84790538 -6.57173491 2.74541487 -10.25 3.625 C-11.32765625 3.88539063 -12.4053125 4.14578125 -13.515625 4.4140625 C-14.33546875 4.60742188 -15.1553125 4.80078125 -16 5 C-16 4.34 -16 3.68 -16 3 C-14.08802961 2.29954544 -12.17019565 1.615081 -10.25 0.9375 C-9.18265625 0.55464844 -8.1153125 0.17179688 -7.015625 -0.22265625 C-4.07719958 -0.98010011 -2.77651052 -1.07151741 0 0 Z " fill="#1C5CE8" transform="translate(601,563)"/>
<path d="M0 0 C0.99 0.33 1.98 0.66 3 1 C0.69 3.64 -1.62 6.28 -4 9 C-5.32 8.67 -6.64 8.34 -8 8 C-5.36 5.36 -2.72 2.72 0 0 Z " fill="#1458E7" transform="translate(461,562)"/>
<path d="M0 0 C4.0357846 1.22012093 7.55406335 2.53861668 11 5 C11.33 5.99 11.66 6.98 12 8 C7.1725201 6.58707905 3.2837641 4.57025846 -1 2 C-0.67 1.34 -0.34 0.68 0 0 Z " fill="#DDE8FB" transform="translate(557,901)"/>
<path d="M0 0 C0.66 0.33 1.32 0.66 2 1 C-4.31117397 8.91607732 -4.31117397 8.91607732 -9 11 C-9.66 10.67 -10.32 10.34 -11 10 C-5.555 5.05 -5.555 5.05 0 0 Z " fill="#1B59E7" transform="translate(955,682)"/>
<path d="M0 0 C0.33 0.99 0.66 1.98 1 3 C-0.97845068 6.39162974 -3.0755255 9.36797295 -6 12 C-6.66 11.67 -7.32 11.34 -8 11 C-5.36 7.37 -2.72 3.74 0 0 Z " fill="#165BEA" transform="translate(440,586)"/>
<path d="M0 0 C2.03125 0.234375 2.03125 0.234375 4.5 0.75 C5.72203125 0.98976563 5.72203125 0.98976563 6.96875 1.234375 C7.6390625 1.48703125 8.309375 1.7396875 9 2 C9.33 2.99 9.66 3.98 10 5 C5.44262737 4.56179109 2.42346555 4.14958831 -1 1 C-0.67 0.67 -0.34 0.34 0 0 Z " fill="#1A5AE6" transform="translate(752,458)"/>
<path d="M0 0 C3.0831351 1.19899698 6.06279492 2.47700477 9 4 C9 4.66 9 5.32 9 6 C9.66 6 10.32 6 11 6 C10.67 6.66 10.34 7.32 10 8 C8.32819726 7.05065487 6.66266064 6.09026687 5 5.125 C4.071875 4.59132813 3.14375 4.05765625 2.1875 3.5078125 C1.465625 3.01023437 0.74375 2.51265625 0 2 C0 1.34 0 0.68 0 0 Z " fill="#135BE9" transform="translate(563,878)"/>
<path d="M0 0 C0.66 0.33 1.32 0.66 2 1 C1.51789063 1.47050781 1.03578125 1.94101563 0.5390625 2.42578125 C-0.09257812 3.04839844 -0.72421875 3.67101562 -1.375 4.3125 C-2.00148438 4.92738281 -2.62796875 5.54226562 -3.2734375 6.17578125 C-5.18086607 8.08812528 -5.18086607 8.08812528 -7 11 C-7.66 11 -8.32 11 -9 11 C-7.59155282 7.78475695 -5.89655214 5.67816132 -3.375 3.25 C-2.74335938 2.63640625 -2.11171875 2.0228125 -1.4609375 1.390625 C-0.73777344 0.70226562 -0.73777344 0.70226562 0 0 Z " fill="#205AE7" transform="translate(325,238)"/>
<path d="M0 0 C0 0.99 0 1.98 0 3 C-3.13498292 4.85776765 -5.37471432 5.20140476 -9 5 C-2.87096774 0 -2.87096774 0 0 0 Z " fill="#2769EF" transform="translate(685,914)"/>
<path d="M0 0 C0.33 0.99 0.66 1.98 1 3 C-1.64 4.98 -4.28 6.96 -7 9 C-7.66 8.67 -8.32 8.34 -9 8 C-6.03 5.36 -3.06 2.72 0 0 Z " fill="#1258EB" transform="translate(865,761)"/>
<path d="M0 0 C0.66 0.33 1.32 0.66 2 1 C0.18690997 4.77727089 -1.9073259 8.37269822 -4 12 C-4.66 11.67 -5.32 11.34 -6 11 C-4.02 7.37 -2.04 3.74 0 0 Z " fill="#145AE9" transform="translate(423,611)"/>
<path d="M0 0 C0.33 0 0.66 0 1 0 C1.25 3.25 1.25 3.25 1 7 C-0.32 8.32 -1.64 9.64 -3 11 C-2.01 7.37 -1.02 3.74 0 0 Z " fill="#C7DCFB" transform="translate(470,683)"/>
<path d="M0 0 C0.33 0.66 0.66 1.32 1 2 C-2.20336822 4.83374881 -4.78087253 5.5205537 -9 6 C-6.45543849 3.03134491 -3.51005335 1.6380249 0 0 Z " fill="#1C5FEC" transform="translate(337,231)"/>
<path d="M0 0 C0.33 0.99 0.66 1.98 1 3 C-0.98 4.32 -2.96 5.64 -5 7 C-5.66 6.67 -6.32 6.34 -7 6 C-4.69 4.02 -2.38 2.04 0 0 Z " fill="#1A5DED" transform="translate(882,746)"/>
<path d="M0 0 C0.99 0 1.98 0 3 0 C3.99 1.98 4.98 3.96 6 6 C5.01 6 4.02 6 3 6 C0 2.66666667 0 2.66666667 0 0 Z " fill="#2464ED" transform="translate(735,443)"/>
</svg>
